<svg viewBox="0 0 70 48" fill="none" xmlns="http://www.w3.org/2000/svg">
<path d="M50.1258 28.0953L46.3224 24.1807C46.2295 24.0849 46.1776 23.9559 46.178 23.8216C46.1785 23.6874 46.2312 23.5588 46.3249 23.4636L46.3237 23.4624L49.9818 19.7608L34.9987 4.59998L20.0157 19.7608L23.6739 23.4624L23.6726 23.4636C23.7665 23.5586 23.8195 23.6873 23.82 23.8216C23.8204 23.956 23.7684 24.085 23.6751 24.1807L19.872 28.0953L34.9975 43.4001L50.1231 28.0953H50.1258ZM17.8317 26.0269L20.0094 23.8234L18.0069 21.7973L15.8293 24.0008L17.8317 26.0269ZM17.5606 21.3468L16.3424 20.1143L12.5002 24.002L35.0008 46.7695L57.5014 24.002L53.6601 20.1143L52.4419 21.3468L54.8416 23.775C54.871 23.8046 54.8943 23.8397 54.9103 23.8785C54.9262 23.9172 54.9344 23.9588 54.9344 24.0008C54.9344 24.0427 54.9262 24.0843 54.9103 24.123C54.8943 24.1618 54.871 24.197 54.8416 24.2266L35.2244 44.0764C35.1952 44.1061 35.1604 44.1297 35.1221 44.1458C35.0838 44.1619 35.0427 44.1702 35.0013 44.1702C34.9598 44.1702 34.9187 44.1619 34.8804 44.1458C34.8421 44.1297 34.8074 44.1061 34.7781 44.0764L15.1609 24.2266C15.1315 24.197 15.1082 24.1618 15.0923 24.123C15.0764 24.0843 15.0682 24.0427 15.0682 24.0008C15.0682 23.9588 15.0764 23.9172 15.0923 23.8785C15.1082 23.8397 15.1315 23.8046 15.1609 23.775L17.5606 21.3468ZM15.6287 19.392L11.9139 15.6331L3.81829 23.8247L11.9139 32.0167L15.4547 28.4338L11.4308 24.3623C11.3364 24.2664 11.2834 24.1366 11.2834 24.0012C11.2834 23.8659 11.3364 23.736 11.4308 23.6401L15.6287 19.392ZM15.8998 28.8838L12.1362 32.692C12.107 32.7217 12.0722 32.7453 12.0339 32.7614C11.9956 32.7775 11.9545 32.7858 11.9131 32.7858C11.8716 32.7858 11.8305 32.7775 11.7922 32.7614C11.7539 32.7453 11.7192 32.7217 11.6899 32.692L3.14916 24.0501C3.11978 24.0204 3.09648 23.9852 3.08058 23.9465C3.06467 23.9077 3.05649 23.8662 3.05649 23.8242C3.05649 23.7822 3.06467 23.7407 3.08058 23.7019C3.09648 23.6632 3.11978 23.628 3.14916 23.5983L11.6899 14.9564C11.7192 14.9267 11.754 14.9031 11.7923 14.887C11.8305 14.8709 11.8716 14.8626 11.9131 14.8626C11.9545 14.8626 11.9956 14.8709 12.0339 14.887C12.0722 14.9031 12.107 14.9267 12.1362 14.9564L20.6769 23.5983C20.7063 23.6279 20.7296 23.6631 20.7455 23.7019C20.7614 23.7407 20.7696 23.7822 20.7696 23.8242C20.7696 23.8662 20.7614 23.9077 20.7455 23.9465C20.7296 23.9852 20.7063 24.0204 20.6769 24.0501L18.2773 26.4782L19.163 27.3756L22.6093 23.8285L11.9111 13.0035L1.21819 23.8234L11.9113 34.6434L16.751 29.7463L15.8974 28.8819L15.8998 28.8838ZM50.4299 19.3104L51.648 18.0778L35.0006 1.23299L18.3532 18.0778L19.5712 19.3104L34.7756 3.92513C34.8048 3.89538 34.8396 3.87178 34.8779 3.85567C34.9162 3.83957 34.9573 3.83127 34.9987 3.83127C35.0402 3.83127 35.0813 3.83957 35.1196 3.85567C35.1579 3.87178 35.1926 3.89538 35.2219 3.92513L50.4269 19.3104H50.4299ZM51.9961 21.7973L49.9936 23.8234L52.1713 26.0269L54.1737 24.0008L51.9961 21.7973ZM51.7249 26.4774L49.3248 24.0498C49.2954 24.0202 49.2721 23.985 49.2562 23.9462C49.2403 23.9075 49.2321 23.8659 49.2321 23.824C49.2321 23.782 49.2403 23.7404 49.2562 23.7017C49.2721 23.6629 49.2954 23.6277 49.3248 23.5981L57.8655 14.9562C57.8948 14.9265 57.9296 14.9029 57.9678 14.8868C58.0061 14.8707 58.0472 14.8624 58.0887 14.8624C58.1301 14.8624 58.1712 14.8707 58.2095 14.8868C58.2478 14.9029 58.2826 14.9265 58.3118 14.9562L66.8526 23.5981C66.882 23.6277 66.9053 23.6629 66.9212 23.7017C66.9371 23.7404 66.9452 23.782 66.9452 23.824C66.9452 23.8659 66.9371 23.9075 66.9212 23.9462C66.9053 23.985 66.882 24.0202 66.8526 24.0498L58.3118 32.6917C58.2826 32.7215 58.2478 32.7451 58.2095 32.7612C58.1712 32.7773 58.1301 32.7856 58.0887 32.7856C58.0472 32.7856 58.0061 32.7773 57.9678 32.7612C57.9295 32.7451 57.8948 32.7215 57.8655 32.6917L54.1019 28.8835L53.2482 29.748L58.0879 34.645L68.781 23.8251L58.0879 13.0051L47.3897 23.8285L50.8361 27.3756L51.7225 26.4787L51.7249 26.4774ZM17.6418 17.3541L34.6444 0.14929C34.7392 0.0536877 34.8675 0 35.0013 0C35.1351 0 35.2634 0.0536877 35.3581 0.14929L52.3612 17.3544L57.7318 11.9201C57.8265 11.8245 57.9549 11.7708 58.0887 11.7708C58.2225 11.7708 58.3508 11.8245 58.4455 11.9201L69.8525 23.4624C69.9469 23.5582 70 23.6881 70 23.8234C70 23.9588 69.9469 24.0887 69.8525 24.1845L58.4455 35.7266C58.3508 35.8222 58.2225 35.8759 58.0887 35.8759C57.9549 35.8759 57.8265 35.8222 57.7318 35.7266L52.5353 30.4685L35.3568 47.8507C35.2621 47.9463 35.1338 48 35 48C34.8662 48 34.7379 47.9463 34.6432 47.8507L17.4647 30.4685L12.2682 35.7266C12.1735 35.8222 12.0451 35.8759 11.9113 35.8759C11.7775 35.8759 11.6492 35.8222 11.5545 35.7266L0.14754 24.1845C0.0530586 24.0887 0 23.9588 0 23.8234C0 23.6881 0.0530586 23.5582 0.14754 23.4624L11.5551 11.9201C11.6498 11.8245 11.7781 11.7708 11.9119 11.7708C12.0457 11.7708 12.174 11.8245 12.2688 11.9201L17.6393 17.3544L17.6418 17.3541ZM54.3743 19.3907L58.572 23.6384C58.6665 23.7342 58.7196 23.8641 58.7196 23.9995C58.7196 24.1348 58.6665 24.2647 58.572 24.3606L54.5475 28.4321L58.0883 32.0149L66.1845 23.8234L58.0889 15.6318L54.3743 19.3907Z" fill="black"/>
</svg>
